<svg width="33" height="33" viewBox="0 0 33 33" fill="none" xmlns="http://www.w3.org/2000/svg">
<path fill-rule="evenodd" clip-rule="evenodd" d="M17.875 4.125C17.875 3.36561 17.2594 2.75 16.5 2.75C15.7406 2.75 15.125 3.36561 15.125 4.125V5.15625H14.3586C11.2991 5.15625 8.76689 7.53502 8.5759 10.5885L8.27203 15.447C8.15617 17.2994 7.53427 19.0845 6.47406 20.6079C5.51613 21.9844 6.36893 23.8854 8.03396 24.0852L12.7188 24.6474V26.125C12.7188 28.2133 14.4117 29.9062 16.5 29.9062C18.5883 29.9062 20.2813 28.2133 20.2813 26.125V24.6474L24.966 24.0852C26.6311 23.8854 27.4839 21.9844 26.5259 20.6079C25.4657 19.0845 24.8438 17.2994 24.728 15.447L24.4241 10.5885C24.2331 7.53502 21.7009 5.15625 18.6414 5.15625H17.875V4.125ZM14.7813 26.125C14.7813 27.0742 15.5508 27.8438 16.5 27.8438C17.4492 27.8438 18.2188 27.0742 18.2188 26.125V25.0938H14.7813V26.125Z" fill="#F0F0F0"/>
</svg>
