<svg width="26" height="28" viewBox="0 0 26 28" fill="none" xmlns="http://www.w3.org/2000/svg">
<path d="M13 0C9.52595 0 6.70968 2.85272 6.70968 6.37172C6.70968 9.89073 9.52595 12.7434 13 12.7434C16.474 12.7434 19.2903 9.89073 19.2903 6.37172C19.2903 2.85272 16.474 0 13 0Z" fill="#F0F0F0"/>
<path d="M6.29032 16.1417C2.81627 16.1417 0 18.9944 0 22.5134V24.5325C0 25.8123 0.915676 26.9035 2.16265 27.1098C9.34004 28.2967 16.66 28.2967 23.8374 27.1098C25.0843 26.9035 26 25.8123 26 24.5325V22.5134C26 18.9944 23.1837 16.1417 19.7097 16.1417H19.1379C18.8284 16.1417 18.5209 16.1913 18.2267 16.2886L16.7749 16.7688C14.322 17.5801 11.678 17.5801 9.22511 16.7688L7.77328 16.2886C7.4791 16.1913 7.17157 16.1417 6.8621 16.1417H6.29032Z" fill="#F0F0F0"/>
</svg>
