<svg width="33" height="33" viewBox="0 0 33 33" fill="none" xmlns="http://www.w3.org/2000/svg">
<path d="M12.0312 16.5C12.0312 14.032 14.032 12.0312 16.5 12.0312C18.968 12.0312 20.9687 14.032 20.9687 16.5C20.9687 18.968 18.968 20.9687 16.5 20.9687C14.032 20.9687 12.0312 18.968 12.0312 16.5Z" fill="#F0F0F0"/>
<path fill-rule="evenodd" clip-rule="evenodd" d="M15.7585 2.52795C16.1639 2.10852 16.8361 2.10852 17.2415 2.52795L20.7785 6.1875H25.7812C26.3508 6.1875 26.8125 6.6492 26.8125 7.21875V12.2215L30.472 15.7585C30.8915 16.1639 30.8915 16.8361 30.472 17.2415L26.8125 20.7785V25.7812C26.8125 26.3508 26.3508 26.8125 25.7812 26.8125H20.7785L17.2415 30.472C16.8361 30.8915 16.1639 30.8915 15.7585 30.472L12.2215 26.8125H7.21875C6.6492 26.8125 6.1875 26.3508 6.1875 25.7812V20.7785L2.52795 17.2415C2.10852 16.8361 2.10852 16.1639 2.52795 15.7585L6.1875 12.2215V7.21875C6.1875 6.6492 6.6492 6.1875 7.21875 6.1875H12.2215L15.7585 2.52795ZM16.5 9.96875C12.8929 9.96875 9.96873 12.8929 9.96873 16.5C9.96873 20.1071 12.8929 23.0312 16.5 23.0312C20.1071 23.0312 23.0312 20.1071 23.0312 16.5C23.0312 12.8929 20.1071 9.96875 16.5 9.96875Z" fill="#F0F0F0"/>
</svg>
